<mxfile host="app.diagrams.net" modified="2023-11-01T22:44:25.500Z" agent="Mozilla/5.0 (Windows NT 10.0; Win64; x64) AppleWebKit/537.36 (KHTML, like Gecko) Chrome/118.0.0.0 Safari/537.36 Edg/118.0.2088.76" etag="2IvnntnHy4oqaFuO9zpM" version="22.0.8" type="github">
  <diagram name="Página-1" id="88XU3ZMUUMRvsy-3oLPo">
    <mxGraphModel dx="1002" dy="569" grid="1" gridSize="10" guides="1" tooltips="1" connect="1" arrows="1" fold="1" page="1" pageScale="1" pageWidth="827" pageHeight="1169" math="0" shadow="0">
      <root>
        <mxCell id="0" />
        <mxCell id="1" parent="0" />
        <mxCell id="ruHgBzXR7xuqMM93KKvb-1" value="JUGADOR" style="rounded=0;whiteSpace=wrap;html=1;" parent="1" vertex="1">
          <mxGeometry x="170" y="176" width="110" height="60" as="geometry" />
        </mxCell>
        <mxCell id="ruHgBzXR7xuqMM93KKvb-2" value="EQUIPO" style="rounded=0;whiteSpace=wrap;html=1;" parent="1" vertex="1">
          <mxGeometry x="550" y="176" width="120" height="60" as="geometry" />
        </mxCell>
        <mxCell id="ruHgBzXR7xuqMM93KKvb-3" value="Pertenece" style="rhombus;whiteSpace=wrap;html=1;" parent="1" vertex="1">
          <mxGeometry x="370" y="166" width="110" height="80" as="geometry" />
        </mxCell>
        <mxCell id="ruHgBzXR7xuqMM93KKvb-5" value="" style="endArrow=none;html=1;rounded=0;entryX=0;entryY=0.5;entryDx=0;entryDy=0;exitX=1;exitY=0.5;exitDx=0;exitDy=0;" parent="1" source="ruHgBzXR7xuqMM93KKvb-3" target="ruHgBzXR7xuqMM93KKvb-2" edge="1">
          <mxGeometry width="50" height="50" relative="1" as="geometry">
            <mxPoint x="390" y="286" as="sourcePoint" />
            <mxPoint x="440" y="236" as="targetPoint" />
          </mxGeometry>
        </mxCell>
        <mxCell id="ruHgBzXR7xuqMM93KKvb-6" value="" style="endArrow=none;html=1;rounded=0;exitX=1;exitY=0.5;exitDx=0;exitDy=0;entryX=0;entryY=0.5;entryDx=0;entryDy=0;" parent="1" source="ruHgBzXR7xuqMM93KKvb-1" target="ruHgBzXR7xuqMM93KKvb-3" edge="1">
          <mxGeometry width="50" height="50" relative="1" as="geometry">
            <mxPoint x="250" y="266" as="sourcePoint" />
            <mxPoint x="300" y="216" as="targetPoint" />
          </mxGeometry>
        </mxCell>
        <mxCell id="ruHgBzXR7xuqMM93KKvb-7" value="1..N" style="text;html=1;strokeColor=none;fillColor=none;align=center;verticalAlign=middle;whiteSpace=wrap;rounded=0;" parent="1" vertex="1">
          <mxGeometry x="270" y="176" width="60" height="30" as="geometry" />
        </mxCell>
        <mxCell id="ruHgBzXR7xuqMM93KKvb-8" value="Nombre" style="ellipse;whiteSpace=wrap;html=1;" parent="1" vertex="1">
          <mxGeometry x="40" y="86" width="90" height="50" as="geometry" />
        </mxCell>
        <mxCell id="ruHgBzXR7xuqMM93KKvb-9" value="Fecha Nacimiento" style="ellipse;whiteSpace=wrap;html=1;" parent="1" vertex="1">
          <mxGeometry x="30" y="166" width="90" height="50" as="geometry" />
        </mxCell>
        <mxCell id="ruHgBzXR7xuqMM93KKvb-10" value="#DNI" style="ellipse;whiteSpace=wrap;html=1;" parent="1" vertex="1">
          <mxGeometry x="40" y="246" width="90" height="50" as="geometry" />
        </mxCell>
        <mxCell id="ruHgBzXR7xuqMM93KKvb-12" value="" style="endArrow=none;html=1;rounded=0;exitX=0.25;exitY=0;exitDx=0;exitDy=0;" parent="1" source="ruHgBzXR7xuqMM93KKvb-1" target="ruHgBzXR7xuqMM93KKvb-8" edge="1">
          <mxGeometry width="50" height="50" relative="1" as="geometry">
            <mxPoint x="390" y="256" as="sourcePoint" />
            <mxPoint x="440" y="206" as="targetPoint" />
          </mxGeometry>
        </mxCell>
        <mxCell id="ruHgBzXR7xuqMM93KKvb-13" value="" style="endArrow=none;html=1;rounded=0;exitX=0.96;exitY=0.648;exitDx=0;exitDy=0;exitPerimeter=0;entryX=0;entryY=0.5;entryDx=0;entryDy=0;" parent="1" source="ruHgBzXR7xuqMM93KKvb-9" target="ruHgBzXR7xuqMM93KKvb-1" edge="1">
          <mxGeometry width="50" height="50" relative="1" as="geometry">
            <mxPoint x="190" y="326" as="sourcePoint" />
            <mxPoint x="240" y="276" as="targetPoint" />
          </mxGeometry>
        </mxCell>
        <mxCell id="ruHgBzXR7xuqMM93KKvb-14" value="" style="endArrow=none;html=1;rounded=0;exitX=0.947;exitY=0.312;exitDx=0;exitDy=0;exitPerimeter=0;entryX=0;entryY=1;entryDx=0;entryDy=0;" parent="1" source="ruHgBzXR7xuqMM93KKvb-10" target="ruHgBzXR7xuqMM93KKvb-1" edge="1">
          <mxGeometry width="50" height="50" relative="1" as="geometry">
            <mxPoint x="130" y="376" as="sourcePoint" />
            <mxPoint x="180" y="326" as="targetPoint" />
          </mxGeometry>
        </mxCell>
        <mxCell id="ruHgBzXR7xuqMM93KKvb-15" value="Nombre" style="ellipse;whiteSpace=wrap;html=1;" parent="1" vertex="1">
          <mxGeometry x="710" y="136" width="100" height="60" as="geometry" />
        </mxCell>
        <mxCell id="ruHgBzXR7xuqMM93KKvb-16" value="Fecha fundación" style="ellipse;whiteSpace=wrap;html=1;" parent="1" vertex="1">
          <mxGeometry x="700" y="238.5" width="100" height="65" as="geometry" />
        </mxCell>
        <mxCell id="ruHgBzXR7xuqMM93KKvb-17" value="" style="endArrow=none;html=1;rounded=0;exitX=0.993;exitY=0.387;exitDx=0;exitDy=0;exitPerimeter=0;" parent="1" source="ruHgBzXR7xuqMM93KKvb-2" target="ruHgBzXR7xuqMM93KKvb-15" edge="1">
          <mxGeometry width="50" height="50" relative="1" as="geometry">
            <mxPoint x="640" y="176" as="sourcePoint" />
            <mxPoint x="690" y="126" as="targetPoint" />
          </mxGeometry>
        </mxCell>
        <mxCell id="ruHgBzXR7xuqMM93KKvb-18" value="" style="endArrow=none;html=1;rounded=0;entryX=0;entryY=0;entryDx=0;entryDy=0;exitX=1;exitY=0.75;exitDx=0;exitDy=0;" parent="1" source="ruHgBzXR7xuqMM93KKvb-2" target="ruHgBzXR7xuqMM93KKvb-16" edge="1">
          <mxGeometry width="50" height="50" relative="1" as="geometry">
            <mxPoint x="640" y="296" as="sourcePoint" />
            <mxPoint x="690" y="246" as="targetPoint" />
          </mxGeometry>
        </mxCell>
        <mxCell id="ruHgBzXR7xuqMM93KKvb-19" value="Juega" style="rhombus;whiteSpace=wrap;html=1;" parent="1" vertex="1">
          <mxGeometry x="555" y="316" width="110" height="80" as="geometry" />
        </mxCell>
        <mxCell id="ruHgBzXR7xuqMM93KKvb-20" value="PARTIDA" style="rounded=0;whiteSpace=wrap;html=1;" parent="1" vertex="1">
          <mxGeometry x="550" y="466" width="120" height="60" as="geometry" />
        </mxCell>
        <mxCell id="ruHgBzXR7xuqMM93KKvb-21" value="" style="endArrow=none;html=1;rounded=0;entryX=0.5;entryY=1;entryDx=0;entryDy=0;exitX=0.5;exitY=0;exitDx=0;exitDy=0;" parent="1" source="ruHgBzXR7xuqMM93KKvb-19" target="ruHgBzXR7xuqMM93KKvb-2" edge="1">
          <mxGeometry width="50" height="50" relative="1" as="geometry">
            <mxPoint x="470" y="366" as="sourcePoint" />
            <mxPoint x="520" y="316" as="targetPoint" />
          </mxGeometry>
        </mxCell>
        <mxCell id="ruHgBzXR7xuqMM93KKvb-22" value="" style="endArrow=none;html=1;rounded=0;entryX=0.5;entryY=1;entryDx=0;entryDy=0;exitX=0.5;exitY=0;exitDx=0;exitDy=0;" parent="1" source="ruHgBzXR7xuqMM93KKvb-20" target="ruHgBzXR7xuqMM93KKvb-19" edge="1">
          <mxGeometry width="50" height="50" relative="1" as="geometry">
            <mxPoint x="550" y="456" as="sourcePoint" />
            <mxPoint x="600" y="406" as="targetPoint" />
          </mxGeometry>
        </mxCell>
        <mxCell id="ruHgBzXR7xuqMM93KKvb-23" value="0..N" style="text;html=1;strokeColor=none;fillColor=none;align=center;verticalAlign=middle;whiteSpace=wrap;rounded=0;" parent="1" vertex="1">
          <mxGeometry x="600" y="436" width="60" height="30" as="geometry" />
        </mxCell>
        <mxCell id="ruHgBzXR7xuqMM93KKvb-25" value="1..N" style="text;html=1;strokeColor=none;fillColor=none;align=center;verticalAlign=middle;whiteSpace=wrap;rounded=0;" parent="1" vertex="1">
          <mxGeometry x="500" y="176" width="60" height="30" as="geometry" />
        </mxCell>
        <mxCell id="ruHgBzXR7xuqMM93KKvb-26" value="2..2" style="text;html=1;strokeColor=none;fillColor=none;align=center;verticalAlign=middle;whiteSpace=wrap;rounded=0;" parent="1" vertex="1">
          <mxGeometry x="600" y="236" width="60" height="30" as="geometry" />
        </mxCell>
        <mxCell id="ruHgBzXR7xuqMM93KKvb-27" value="Fecha" style="ellipse;whiteSpace=wrap;html=1;" parent="1" vertex="1">
          <mxGeometry x="440" y="496" width="90" height="40" as="geometry" />
        </mxCell>
        <mxCell id="ruHgBzXR7xuqMM93KKvb-28" value="Resultado" style="ellipse;whiteSpace=wrap;html=1;" parent="1" vertex="1">
          <mxGeometry x="530" y="551" width="90" height="40" as="geometry" />
        </mxCell>
        <mxCell id="ruHgBzXR7xuqMM93KKvb-29" value="" style="endArrow=none;html=1;rounded=0;entryX=0;entryY=0.5;entryDx=0;entryDy=0;exitX=1;exitY=0;exitDx=0;exitDy=0;" parent="1" source="ruHgBzXR7xuqMM93KKvb-27" target="ruHgBzXR7xuqMM93KKvb-20" edge="1">
          <mxGeometry width="50" height="50" relative="1" as="geometry">
            <mxPoint x="430" y="496" as="sourcePoint" />
            <mxPoint x="480" y="446" as="targetPoint" />
          </mxGeometry>
        </mxCell>
        <mxCell id="ruHgBzXR7xuqMM93KKvb-30" value="" style="endArrow=none;html=1;rounded=0;entryX=0.5;entryY=0;entryDx=0;entryDy=0;" parent="1" source="ruHgBzXR7xuqMM93KKvb-20" target="ruHgBzXR7xuqMM93KKvb-28" edge="1">
          <mxGeometry width="50" height="50" relative="1" as="geometry">
            <mxPoint x="610" y="576" as="sourcePoint" />
            <mxPoint x="610" y="596.7106781186548" as="targetPoint" />
          </mxGeometry>
        </mxCell>
        <mxCell id="ruHgBzXR7xuqMM93KKvb-31" value="&lt;font style=&quot;font-size: 20px;&quot;&gt;Liga League of Legends&lt;/font&gt;" style="text;html=1;strokeColor=#b85450;fillColor=#f8cecc;align=center;verticalAlign=middle;whiteSpace=wrap;rounded=0;" parent="1" vertex="1">
          <mxGeometry x="250" y="30" width="310" height="30" as="geometry" />
        </mxCell>
      </root>
    </mxGraphModel>
  </diagram>
</mxfile>
